<svg xmlns="http://www.w3.org/2000/svg" width="124" height="124" viewBox="0 0 124 124" version="1.1"><path d="M 56.180 25.431 C 53.881 32.268, 52 38.343, 52 38.931 C 52 39.519, 53.546 40, 55.435 40 C 60.308 40, 63.716 41.530, 64.526 44.081 C 64.994 45.557, 63.310 51.962, 59.382 63.638 L 53.542 81 49.771 81 C 47.697 81, 46 80.632, 46 80.182 C 46 79.424, 55.013 51.678, 56.536 47.750 C 57.113 46.260, 56.614 46, 53.180 46 L 49.146 46 43.344 63.500 L 37.543 81 33.771 81 C 31.697 81, 30 80.663, 30 80.250 C 30 79.838, 34.772 65.185, 40.604 47.688 C 46.436 30.191, 50.910 15.576, 50.545 15.211 C 49.211 13.878, 38.350 20.579, 32.872 26.114 C 14.806 44.371, 14.283 74.733, 31.707 93.756 C 36.886 99.410, 47.038 106, 50.570 106 C 53.148 106, 52.865 106.647, 61.052 82 C 64.432 71.825, 69.006 58.213, 71.217 51.750 L 75.236 40 83.053 40 C 92.063 40, 95.558 41.032, 96.489 43.967 C 97.406 46.854, 87.424 76.957, 84.789 79.250 C 83.306 80.541, 81.028 81, 76.110 81 L 69.442 81 65.221 93.790 C 62.900 100.825, 61 106.900, 61 107.290 C 61 108.450, 67.119 108.078, 72.764 106.575 C 96.024 100.383, 111.109 72.780, 104.598 48.325 C 99.270 28.312, 81.718 13.071, 63.930 13.012 L 60.361 13 56.180 25.431 M 76.583 59.751 C 74.062 67.314, 72 73.839, 72 74.251 C 72 74.663, 73.700 75, 75.779 75 L 79.558 75 83.919 61.750 C 86.317 54.462, 88.490 47.938, 88.747 47.250 C 89.072 46.380, 87.992 46, 85.190 46 L 81.166 46 76.583 59.751" stroke="none" fill="#fffcfc" fill-rule="evenodd"/><path d="" stroke="none" fill="#fcfcfc" fill-rule="evenodd"/></svg>